<svg xmlns="http://www.w3.org/2000/svg" width="190" height="55" viewBox="0 0 190 55" fill="none"><g clip-path="url(#clip0_191_990)"><path d="M7.60025 26.5422C7.60025 19.0606 18.2466 12.3042 35.368 7.47559C13.854 12.3102 0 19.9248 0 28.4639C0 43.1189 40.8318 55.0061 91.1969 55.0061C115.853 55.0061 138.217 52.1597 154.632 47.5305C139.204 51.0115 119.832 53.0843 98.7971 53.0843C48.45 53.0843 7.60025 41.2032 7.60025 26.5422Z" fill="#9A6BAB"></path><path d="M190 26.5421C190 11.8872 149.168 0 98.7974 0C74.1475 0 51.7776 2.85243 35.3623 7.47555C50.7902 3.99461 70.1558 1.92178 91.1912 1.92178C141.562 1.92178 182.388 13.8029 182.388 28.4639C182.388 35.9455 171.748 42.7079 154.626 47.5305C176.146 42.6777 190 35.0813 190 26.5421Z" fill="#9A6BAB"></path><path d="M98.2769 21.1454C98.1213 21.79 98.9192 22.6985 100.671 23.8709C102.417 24.9641 104.081 26.1861 105.65 27.5271C107.453 29.2917 108.303 31.1833 108.199 33.2017C108.202 34.0969 108.018 34.9826 107.66 35.8011C107.301 36.6196 106.775 37.3525 106.116 37.9518C104.696 39.2209 102.737 39.8554 100.24 39.8554H91.6341V33.8967H99.1685C99.5961 33.8872 100.012 33.7529 100.365 33.51C100.538 33.4218 100.684 33.2893 100.789 33.1259C100.894 32.9625 100.954 32.7739 100.964 32.5793C100.962 32.4403 100.923 32.3044 100.85 32.1865C100.451 31.4613 99.382 30.5407 97.6425 29.4247C96.148 28.5287 94.7725 27.4443 93.5491 26.1976C92.2209 24.7487 91.4817 22.8478 91.4785 20.8734C91.487 20.0216 91.6737 19.1812 92.0265 18.4074C92.3792 17.6335 92.8899 16.9438 93.5252 16.3833C94.1497 15.755 94.8909 15.2575 95.7063 14.9194C96.5218 14.5813 97.3954 14.4092 98.2769 14.4132H106.499V20.3718H99.8268C98.8932 20.3658 98.3786 20.6257 98.2769 21.1454Z" fill="black"></path><path d="M120.317 33.8968H124.333V39.8555H119.851C118.142 39.9035 116.443 39.5865 114.864 38.9252C113.285 38.2638 111.862 37.2732 110.689 36.018C109.507 34.8074 108.584 33.3649 107.977 31.7797C107.369 30.1945 107.091 28.5004 107.158 26.802C107.182 23.5315 108.455 20.3967 110.712 18.0513C111.777 16.8847 113.074 15.9586 114.518 15.3337C115.962 14.7088 117.52 14.3992 119.091 14.4254H124.225V20.384H121.461C119.557 20.384 118.139 20.6681 117.212 21.2241C115.793 22.0641 114.955 22.9706 114.698 23.9315L114.584 24.4331H124.279V30.0171H114.596C115.072 31.1386 115.865 32.0931 116.876 32.7607C117.512 33.1572 118.201 33.4566 118.923 33.6491C119.378 33.7791 119.846 33.8621 120.317 33.8968Z" fill="black"></path><path d="M125.368 39.898V23.0493C125.356 21.8265 125.599 20.6148 126.081 19.4933C126.564 18.3718 127.275 17.3657 128.169 16.5406C129.023 15.6712 130.044 14.9858 131.168 14.5256C132.292 14.0655 133.497 13.8402 134.71 13.8634C137.594 13.9118 139.815 14.7881 141.388 16.4862C143.136 18.3677 144.012 21.1718 144.016 24.8985V39.898H137.313V31.2923H133.094V25.1886H137.313V22.6867C137.317 21.9585 137.05 21.2554 136.565 20.7165C136.344 20.4495 136.07 20.2321 135.761 20.0781C135.452 19.9241 135.114 19.8369 134.77 19.8221C134.398 19.8078 134.029 19.8864 133.695 20.0509C133.361 20.2153 133.072 20.4606 132.855 20.7649C132.351 21.3985 132.081 22.1886 132.089 23.0009V39.9221L125.368 39.898Z" fill="black"></path><path d="M144.89 32.4162V14.4072H151.383V31.0202C151.351 31.3935 151.397 31.7693 151.516 32.124C151.636 32.4787 151.827 32.8045 152.077 33.081C152.715 33.6507 153.549 33.9438 154.399 33.8968H159.187V39.8555H152.077C150.819 39.8761 149.579 39.5547 148.486 38.9249C146.089 37.5188 144.89 35.3493 144.89 32.4162Z" fill="black"></path><path d="M65.7335 27.8113V27.5575C65.7083 24.99 66.476 22.4784 67.9298 20.372C67.407 19.6396 66.818 18.9578 66.1704 18.3354C64.9825 17.1464 63.5724 16.2076 62.0221 15.5738C60.4719 14.9399 58.8123 14.6235 57.1398 14.6429V21.1032H45.8472C44.404 23.603 43.8331 26.5195 44.2258 29.3858C44.6186 32.2521 45.9524 34.9024 48.0136 36.9125C49.2094 38.124 50.6338 39.0809 52.2024 39.7266C53.7711 40.3722 55.452 40.6935 57.1458 40.6714C60.3174 40.7072 63.3851 39.5307 65.7335 37.3778V27.8113ZM61.8197 32.2591C61.2264 32.8737 60.5173 33.362 59.734 33.6952C58.9508 34.0284 58.1094 34.1997 57.2595 34.199C55.5136 34.199 53.8392 33.4987 52.6047 32.252C51.3702 31.0053 50.6766 29.3145 50.6766 27.5514C50.6616 26.7222 50.813 25.8986 51.1215 25.13C51.43 24.3615 51.8894 23.6639 52.472 23.0794C53.067 22.4626 53.7765 21.9703 54.5601 21.6306C55.3436 21.291 56.1858 21.1107 57.0385 21.1C57.8911 21.0894 58.7374 21.2486 59.5291 21.5685C60.3207 21.8884 61.0422 22.3628 61.6521 22.9645C62.2808 23.5555 62.7849 24.2684 63.1344 25.0606C63.4839 25.8529 63.6715 26.7082 63.686 27.5754C63.7005 28.4426 63.5417 29.3038 63.2189 30.1076C62.8962 30.9113 62.4162 31.641 61.8077 32.2531L61.8197 32.2591Z" fill="black"></path><path d="M87.7979 18.3354C86.5631 17.0976 85.0888 16.1302 83.467 15.4939C81.8452 14.8575 80.1109 14.5658 78.3724 14.637C76.6881 14.6552 75.0248 15.0169 73.4822 15.7002C71.9397 16.3835 70.5498 17.3744 69.3957 18.6134C68.8723 19.1593 68.3939 19.7474 67.9655 20.372C69.4607 22.497 70.2467 25.0477 70.2096 27.6542C70.2291 29.3695 69.8974 31.0703 69.2352 32.65C68.573 34.2297 67.5947 35.6541 66.3616 36.834C66.1641 37.0273 65.9607 37.1966 65.7632 37.3779V48.0261H72.3162V38.9612C74.7947 40.3772 77.6638 40.9357 80.486 40.5516C83.3082 40.1676 85.9285 38.862 87.9475 36.834C89.1799 35.6315 90.1571 34.1885 90.8198 32.5926C91.4825 30.9967 91.8167 29.2814 91.8022 27.551C91.7876 25.8205 91.4246 24.1112 90.7352 22.5269C90.0457 20.9426 89.0443 19.5166 87.7919 18.3354H87.7979ZM83.4412 32.235C82.848 32.8496 82.1388 33.3379 81.3556 33.6711C80.5724 34.0043 79.731 34.1756 78.8811 34.1749C77.1352 34.1749 75.4608 33.4745 74.2263 32.2279C72.9918 30.9812 72.2982 29.2904 72.2982 27.5273C72.286 26.6958 72.4416 25.8705 72.7554 25.1017C73.0692 24.3329 73.5346 23.6366 74.1234 23.0553C74.7179 22.4386 75.427 21.9465 76.2101 21.6069C76.9931 21.2674 77.8348 21.0871 78.6869 21.0764C79.5391 21.0658 80.3849 21.2249 81.1761 21.5448C81.9672 21.8646 82.6882 22.3389 83.2976 22.9404C83.9263 23.5314 84.4304 24.2443 84.7799 25.0365C85.1294 25.8288 85.317 26.6841 85.3315 27.5513C85.346 28.4185 85.1872 29.2797 84.8644 30.0835C84.5417 30.8872 84.0617 31.6169 83.4532 32.229L83.4412 32.235Z" fill="black"></path><path d="M56.7566 14.6367H26.4155V21.103H35.069V40.4416H41.7656V21.103H45.847C46.3807 20.201 47.0174 19.3653 47.7441 18.6132C48.9023 17.3698 50.298 16.3763 51.8471 15.6928C53.3961 15.0094 55.0663 14.6501 56.7566 14.6367Z" fill="black"></path><path d="M157.199 11.1255C157.821 11.1255 158.428 11.3116 158.945 11.6602C159.462 12.0088 159.864 12.5043 160.102 13.0841C160.34 13.6638 160.402 14.3017 160.281 14.9172C160.16 15.5326 159.86 16.098 159.421 16.5417C158.982 16.9854 158.422 17.2876 157.812 17.41C157.203 17.5324 156.571 17.4696 155.997 17.2294C155.423 16.9893 154.932 16.5826 154.587 16.0609C154.242 15.5391 154.058 14.9257 154.058 14.2982C154.064 13.4587 154.397 12.6554 154.985 12.0617C155.573 11.4681 156.368 11.1318 157.199 11.1255ZM159.821 14.2982C159.817 13.7755 159.66 13.2655 159.37 12.8326C159.08 12.3997 158.669 12.0633 158.19 11.8657C157.711 11.6681 157.184 11.6183 156.677 11.7225C156.17 11.8266 155.705 12.0802 155.34 12.4511C154.975 12.822 154.727 13.2936 154.627 13.8066C154.528 14.3196 154.581 14.8508 154.78 15.3334C154.978 15.8161 155.314 16.2284 155.745 16.5185C156.176 16.8085 156.682 16.9633 157.199 16.9633C157.895 16.9554 158.56 16.6715 159.051 16.1729C159.541 15.6743 159.818 15.001 159.821 14.2982ZM158.983 16.2442H158.079L157.038 14.691H156.511V16.2442H155.781V12.1831H157.367C157.67 12.1616 157.97 12.2518 158.211 12.4371C158.453 12.6223 158.62 12.8899 158.68 13.19C158.741 13.4901 158.692 13.8023 158.541 14.0684C158.391 14.3346 158.15 14.5365 157.864 14.6366L158.983 16.2442ZM157.277 13.9235C157.648 13.9235 157.924 13.7664 157.924 13.4099C157.924 13.0533 157.648 12.8901 157.277 12.8901H156.511V13.9235H157.277Z" fill="#000001"></path></g><defs><clipPath id="clip0_191_990"><rect width="190" height="55" fill="white"></rect></clipPath></defs></svg>